<mxfile host="app.diagrams.net" agent="Mozilla/5.0 (Windows NT 10.0; Win64; x64) AppleWebKit/537.36 (KHTML, like Gecko) Chrome/134.0.0.0 Safari/537.36" version="26.2.4">
  <diagram name="Page-1" id="6M-3wvFjWveTAewYGCS4">
    <mxGraphModel dx="1182" dy="634" grid="1" gridSize="10" guides="1" tooltips="1" connect="1" arrows="1" fold="1" page="1" pageScale="1" pageWidth="850" pageHeight="1100" math="0" shadow="0">
      <root>
        <mxCell id="0" />
        <mxCell id="1" parent="0" />
        <mxCell id="gYNkToDrlpftOy3vaYt0-2" value="Aplikační" style="rounded=0;whiteSpace=wrap;html=1;fillColor=#e1d5e7;strokeColor=#9673a6;fontFamily=Computer Modern;fontSize=15;" parent="1" vertex="1">
          <mxGeometry x="470" y="240" width="120" height="40" as="geometry" />
        </mxCell>
        <mxCell id="gYNkToDrlpftOy3vaYt0-3" value="&lt;span style=&quot;font-weight: normal;&quot;&gt;Prezentační&lt;/span&gt;" style="rounded=0;whiteSpace=wrap;html=1;fontStyle=1;fillColor=#e1d5e7;strokeColor=#9673a6;fontFamily=Computer Modern;fontSize=15;" parent="1" vertex="1">
          <mxGeometry x="470" y="280" width="120" height="40" as="geometry" />
        </mxCell>
        <mxCell id="gYNkToDrlpftOy3vaYt0-4" value="Relační" style="rounded=0;whiteSpace=wrap;html=1;fillColor=#e1d5e7;strokeColor=#9673a6;fontFamily=Computer Modern;fontSize=15;" parent="1" vertex="1">
          <mxGeometry x="470" y="320" width="120" height="40" as="geometry" />
        </mxCell>
        <mxCell id="gYNkToDrlpftOy3vaYt0-5" value="Transportní" style="rounded=0;whiteSpace=wrap;html=1;fillColor=#dae8fc;strokeColor=#6c8ebf;fontFamily=Computer Modern;fontSize=15;" parent="1" vertex="1">
          <mxGeometry x="470" y="360" width="120" height="40" as="geometry" />
        </mxCell>
        <mxCell id="gYNkToDrlpftOy3vaYt0-6" value="Síťová" style="rounded=0;whiteSpace=wrap;html=1;fillColor=#f8cecc;strokeColor=#b85450;fontFamily=Computer Modern;fontSize=15;" parent="1" vertex="1">
          <mxGeometry x="470" y="400" width="120" height="40" as="geometry" />
        </mxCell>
        <mxCell id="gYNkToDrlpftOy3vaYt0-29" style="edgeStyle=orthogonalEdgeStyle;rounded=0;orthogonalLoop=1;jettySize=auto;html=1;exitX=0;exitY=0.5;exitDx=0;exitDy=0;curved=1;fillColor=#d5e8d4;strokeColor=#82b366;fontFamily=Computer Modern;fontSize=13;" parent="1" source="gYNkToDrlpftOy3vaYt0-7" target="gYNkToDrlpftOy3vaYt0-26" edge="1">
          <mxGeometry relative="1" as="geometry" />
        </mxCell>
        <mxCell id="gYNkToDrlpftOy3vaYt0-36" style="edgeStyle=orthogonalEdgeStyle;rounded=0;orthogonalLoop=1;jettySize=auto;html=1;exitX=1;exitY=0.25;exitDx=0;exitDy=0;entryX=0;entryY=0.5;entryDx=0;entryDy=0;endSize=6;startSize=6;endArrow=none;startFill=0;strokeWidth=1;fillColor=#d5e8d4;strokeColor=#82b366;fontFamily=Computer Modern;fontSize=15;" parent="1" source="gYNkToDrlpftOy3vaYt0-7" target="gYNkToDrlpftOy3vaYt0-12" edge="1">
          <mxGeometry relative="1" as="geometry" />
        </mxCell>
        <mxCell id="gYNkToDrlpftOy3vaYt0-37" style="edgeStyle=orthogonalEdgeStyle;rounded=0;orthogonalLoop=1;jettySize=auto;html=1;exitX=1;exitY=0.75;exitDx=0;exitDy=0;entryX=0;entryY=0.5;entryDx=0;entryDy=0;endSize=6;startSize=6;endArrow=none;startFill=0;strokeWidth=1;fillColor=#d5e8d4;strokeColor=#82b366;fontFamily=Computer Modern;fontSize=15;" parent="1" source="gYNkToDrlpftOy3vaYt0-7" target="gYNkToDrlpftOy3vaYt0-8" edge="1">
          <mxGeometry relative="1" as="geometry" />
        </mxCell>
        <mxCell id="gYNkToDrlpftOy3vaYt0-7" value="Síťového rozhraní&lt;div&gt;&lt;i&gt;Internet access&lt;/i&gt;&lt;/div&gt;" style="rounded=0;whiteSpace=wrap;html=1;fillColor=#d5e8d4;strokeColor=#82b366;fontFamily=Computer Modern;fontSize=15;" parent="1" vertex="1">
          <mxGeometry x="270" y="440" width="120" height="80" as="geometry" />
        </mxCell>
        <mxCell id="gYNkToDrlpftOy3vaYt0-8" value="Fyzická" style="rounded=0;whiteSpace=wrap;html=1;fillColor=#d5e8d4;strokeColor=#82b366;fontFamily=Computer Modern;fontSize=15;" parent="1" vertex="1">
          <mxGeometry x="470" y="480" width="120" height="40" as="geometry" />
        </mxCell>
        <mxCell id="gYNkToDrlpftOy3vaYt0-23" style="edgeStyle=orthogonalEdgeStyle;rounded=0;orthogonalLoop=1;jettySize=auto;html=1;exitX=0;exitY=0.5;exitDx=0;exitDy=0;curved=1;fillColor=#e1d5e7;strokeColor=#9673a6;fontFamily=Computer Modern;fontSize=13;" parent="1" source="gYNkToDrlpftOy3vaYt0-9" target="gYNkToDrlpftOy3vaYt0-22" edge="1">
          <mxGeometry relative="1" as="geometry" />
        </mxCell>
        <mxCell id="gYNkToDrlpftOy3vaYt0-31" style="edgeStyle=orthogonalEdgeStyle;rounded=0;orthogonalLoop=1;jettySize=auto;html=1;exitX=1.001;exitY=0.168;exitDx=0;exitDy=0;entryX=0;entryY=0.5;entryDx=0;entryDy=0;curved=0;endSize=6;startSize=6;endArrow=none;startFill=0;strokeWidth=1;exitPerimeter=0;fillColor=#e1d5e7;strokeColor=#9673a6;fontFamily=Computer Modern;fontSize=15;" parent="1" source="gYNkToDrlpftOy3vaYt0-9" target="gYNkToDrlpftOy3vaYt0-2" edge="1">
          <mxGeometry relative="1" as="geometry" />
        </mxCell>
        <mxCell id="gYNkToDrlpftOy3vaYt0-32" style="edgeStyle=orthogonalEdgeStyle;rounded=0;orthogonalLoop=1;jettySize=auto;html=1;exitX=1;exitY=0.5;exitDx=0;exitDy=0;entryX=0;entryY=0.5;entryDx=0;entryDy=0;endSize=6;startSize=6;endArrow=none;startFill=0;strokeWidth=1;fillColor=#e1d5e7;strokeColor=#9673a6;fontFamily=Computer Modern;fontSize=15;" parent="1" source="gYNkToDrlpftOy3vaYt0-9" target="gYNkToDrlpftOy3vaYt0-3" edge="1">
          <mxGeometry relative="1" as="geometry" />
        </mxCell>
        <mxCell id="gYNkToDrlpftOy3vaYt0-33" style="edgeStyle=orthogonalEdgeStyle;rounded=0;orthogonalLoop=1;jettySize=auto;html=1;exitX=1.009;exitY=0.835;exitDx=0;exitDy=0;entryX=0;entryY=0.5;entryDx=0;entryDy=0;curved=0;endSize=6;startSize=6;endArrow=none;startFill=0;strokeWidth=1;exitPerimeter=0;fillColor=#e1d5e7;strokeColor=#9673a6;fontFamily=Computer Modern;fontSize=15;" parent="1" source="gYNkToDrlpftOy3vaYt0-9" target="gYNkToDrlpftOy3vaYt0-4" edge="1">
          <mxGeometry relative="1" as="geometry" />
        </mxCell>
        <mxCell id="gYNkToDrlpftOy3vaYt0-9" value="Aplikační" style="rounded=0;whiteSpace=wrap;html=1;fillColor=#e1d5e7;strokeColor=#9673a6;fontFamily=Computer Modern;fontSize=15;" parent="1" vertex="1">
          <mxGeometry x="270" y="240" width="120" height="120" as="geometry" />
        </mxCell>
        <mxCell id="gYNkToDrlpftOy3vaYt0-27" style="edgeStyle=orthogonalEdgeStyle;rounded=0;orthogonalLoop=1;jettySize=auto;html=1;exitX=0;exitY=0.5;exitDx=0;exitDy=0;curved=1;fillColor=#dae8fc;strokeColor=#6c8ebf;fontFamily=Computer Modern;fontSize=13;" parent="1" source="gYNkToDrlpftOy3vaYt0-10" target="gYNkToDrlpftOy3vaYt0-24" edge="1">
          <mxGeometry relative="1" as="geometry" />
        </mxCell>
        <mxCell id="gYNkToDrlpftOy3vaYt0-34" style="edgeStyle=orthogonalEdgeStyle;rounded=0;orthogonalLoop=1;jettySize=auto;html=1;exitX=1;exitY=0.5;exitDx=0;exitDy=0;entryX=0;entryY=0.5;entryDx=0;entryDy=0;endSize=6;startSize=6;endArrow=none;startFill=0;strokeWidth=1;fillColor=#dae8fc;strokeColor=#6c8ebf;fontFamily=Computer Modern;fontSize=15;" parent="1" source="gYNkToDrlpftOy3vaYt0-10" target="gYNkToDrlpftOy3vaYt0-5" edge="1">
          <mxGeometry relative="1" as="geometry" />
        </mxCell>
        <mxCell id="gYNkToDrlpftOy3vaYt0-10" value="Transportní" style="rounded=0;whiteSpace=wrap;html=1;fillColor=#dae8fc;strokeColor=#6c8ebf;fontFamily=Computer Modern;fontSize=15;" parent="1" vertex="1">
          <mxGeometry x="270" y="360" width="120" height="40" as="geometry" />
        </mxCell>
        <mxCell id="gYNkToDrlpftOy3vaYt0-28" style="edgeStyle=orthogonalEdgeStyle;rounded=0;orthogonalLoop=1;jettySize=auto;html=1;exitX=0;exitY=0.5;exitDx=0;exitDy=0;curved=1;fillColor=#f8cecc;strokeColor=#b85450;fontFamily=Computer Modern;fontSize=13;" parent="1" source="gYNkToDrlpftOy3vaYt0-11" target="gYNkToDrlpftOy3vaYt0-25" edge="1">
          <mxGeometry relative="1" as="geometry" />
        </mxCell>
        <mxCell id="gYNkToDrlpftOy3vaYt0-35" style="edgeStyle=orthogonalEdgeStyle;rounded=0;orthogonalLoop=1;jettySize=auto;html=1;exitX=1;exitY=0.5;exitDx=0;exitDy=0;entryX=0;entryY=0.5;entryDx=0;entryDy=0;endSize=6;startSize=6;endArrow=none;startFill=0;strokeWidth=1;fillColor=#f8cecc;strokeColor=#b85450;fontFamily=Computer Modern;fontSize=15;" parent="1" source="gYNkToDrlpftOy3vaYt0-11" target="gYNkToDrlpftOy3vaYt0-6" edge="1">
          <mxGeometry relative="1" as="geometry" />
        </mxCell>
        <mxCell id="gYNkToDrlpftOy3vaYt0-11" value="Síťová" style="rounded=0;whiteSpace=wrap;html=1;fillColor=#f8cecc;strokeColor=#b85450;fontFamily=Computer Modern;fontSize=15;" parent="1" vertex="1">
          <mxGeometry x="270" y="400" width="120" height="40" as="geometry" />
        </mxCell>
        <mxCell id="gYNkToDrlpftOy3vaYt0-12" value="Spojová" style="rounded=0;whiteSpace=wrap;html=1;fillColor=#d5e8d4;strokeColor=#82b366;fontFamily=Computer Modern;fontSize=15;" parent="1" vertex="1">
          <mxGeometry x="470" y="440" width="120" height="40" as="geometry" />
        </mxCell>
        <mxCell id="gYNkToDrlpftOy3vaYt0-14" value="L7" style="text;html=1;align=center;verticalAlign=middle;whiteSpace=wrap;rounded=0;fontFamily=Computer Modern;fontSize=13;" parent="1" vertex="1">
          <mxGeometry x="590" y="245" width="30" height="30" as="geometry" />
        </mxCell>
        <mxCell id="gYNkToDrlpftOy3vaYt0-15" value="L6" style="text;html=1;align=center;verticalAlign=middle;whiteSpace=wrap;rounded=0;fontFamily=Computer Modern;fontSize=13;" parent="1" vertex="1">
          <mxGeometry x="590" y="285" width="30" height="30" as="geometry" />
        </mxCell>
        <mxCell id="gYNkToDrlpftOy3vaYt0-16" value="L5" style="text;html=1;align=center;verticalAlign=middle;whiteSpace=wrap;rounded=0;fontFamily=Computer Modern;fontSize=13;" parent="1" vertex="1">
          <mxGeometry x="590" y="325" width="30" height="30" as="geometry" />
        </mxCell>
        <mxCell id="gYNkToDrlpftOy3vaYt0-17" value="L4" style="text;html=1;align=center;verticalAlign=middle;whiteSpace=wrap;rounded=0;fontFamily=Computer Modern;fontSize=13;" parent="1" vertex="1">
          <mxGeometry x="590" y="365" width="30" height="30" as="geometry" />
        </mxCell>
        <mxCell id="gYNkToDrlpftOy3vaYt0-18" value="L1" style="text;html=1;align=center;verticalAlign=middle;whiteSpace=wrap;rounded=0;fontFamily=Computer Modern;fontSize=13;" parent="1" vertex="1">
          <mxGeometry x="590" y="485" width="30" height="30" as="geometry" />
        </mxCell>
        <mxCell id="gYNkToDrlpftOy3vaYt0-19" value="L3" style="text;html=1;align=center;verticalAlign=middle;whiteSpace=wrap;rounded=0;fontFamily=Computer Modern;fontSize=13;" parent="1" vertex="1">
          <mxGeometry x="590" y="405" width="30" height="30" as="geometry" />
        </mxCell>
        <mxCell id="gYNkToDrlpftOy3vaYt0-20" value="L2" style="text;html=1;align=center;verticalAlign=middle;whiteSpace=wrap;rounded=0;fontFamily=Computer Modern;fontSize=13;" parent="1" vertex="1">
          <mxGeometry x="590" y="445" width="30" height="30" as="geometry" />
        </mxCell>
        <mxCell id="gYNkToDrlpftOy3vaYt0-22" value="SSH, DNS, POP3,&lt;br&gt;IMAP, FTP, &lt;br&gt;TELNET, SMTP" style="ellipse;shape=cloud;whiteSpace=wrap;html=1;fillColor=#e1d5e7;strokeColor=#9673a6;fontFamily=Computer Modern;fontSize=13;" parent="1" vertex="1">
          <mxGeometry x="90" y="207.5" width="130" height="105" as="geometry" />
        </mxCell>
        <mxCell id="gYNkToDrlpftOy3vaYt0-24" value="TCP, UDP" style="ellipse;shape=cloud;whiteSpace=wrap;html=1;fillColor=#dae8fc;strokeColor=#6c8ebf;fontFamily=Computer Modern;fontSize=13;" parent="1" vertex="1">
          <mxGeometry x="80" y="300" width="120" height="80" as="geometry" />
        </mxCell>
        <mxCell id="gYNkToDrlpftOy3vaYt0-25" value="IP, DHCP,&amp;nbsp;&lt;div&gt;ARP, ICMP&lt;/div&gt;" style="ellipse;shape=cloud;whiteSpace=wrap;html=1;fillColor=#f8cecc;strokeColor=#b85450;fontFamily=Computer Modern;fontSize=13;" parent="1" vertex="1">
          <mxGeometry x="80" y="370" width="120" height="80" as="geometry" />
        </mxCell>
        <mxCell id="gYNkToDrlpftOy3vaYt0-26" value="LAN, ADSL,&lt;div&gt;ETHERNET,&lt;/div&gt;&lt;div&gt;ARPANET&lt;/div&gt;" style="ellipse;shape=cloud;whiteSpace=wrap;html=1;fillColor=#d5e8d4;strokeColor=#82b366;fontFamily=Computer Modern;fontSize=13;" parent="1" vertex="1">
          <mxGeometry x="90" y="445" width="130" height="85" as="geometry" />
        </mxCell>
        <mxCell id="gYNkToDrlpftOy3vaYt0-40" value="TCP/IP" style="text;html=1;align=center;verticalAlign=middle;whiteSpace=wrap;rounded=0;fontFamily=Computer Modern;fontSize=17;fontStyle=0" parent="1" vertex="1">
          <mxGeometry x="300" y="207.5" width="60" height="30" as="geometry" />
        </mxCell>
        <mxCell id="gYNkToDrlpftOy3vaYt0-41" value="OSI RM" style="text;html=1;align=center;verticalAlign=middle;whiteSpace=wrap;rounded=0;fontFamily=Computer Modern;fontSize=17;fontStyle=0" parent="1" vertex="1">
          <mxGeometry x="497.5" y="207.5" width="65" height="30" as="geometry" />
        </mxCell>
        <mxCell id="gYNkToDrlpftOy3vaYt0-44" value="" style="shape=curlyBracket;whiteSpace=wrap;html=1;rounded=1;flipH=1;labelPosition=right;verticalLabelPosition=middle;align=left;verticalAlign=middle;fontFamily=Computer Modern;fontSize=14;" parent="1" vertex="1">
          <mxGeometry x="630" y="240" width="20" height="120" as="geometry" />
        </mxCell>
        <mxCell id="gYNkToDrlpftOy3vaYt0-45" value="" style="shape=curlyBracket;whiteSpace=wrap;html=1;rounded=1;flipH=1;labelPosition=right;verticalLabelPosition=middle;align=left;verticalAlign=middle;fontFamily=Computer Modern;fontSize=14;" parent="1" vertex="1">
          <mxGeometry x="630" y="360" width="20" height="40" as="geometry" />
        </mxCell>
        <mxCell id="gYNkToDrlpftOy3vaYt0-46" value="" style="shape=curlyBracket;whiteSpace=wrap;html=1;rounded=1;flipH=1;labelPosition=right;verticalLabelPosition=middle;align=left;verticalAlign=middle;fontFamily=Computer Modern;fontSize=14;" parent="1" vertex="1">
          <mxGeometry x="630" y="400" width="20" height="40" as="geometry" />
        </mxCell>
        <mxCell id="gYNkToDrlpftOy3vaYt0-49" value="Ethernetový rámec" style="shape=curlyBracket;whiteSpace=wrap;html=1;rounded=1;flipH=1;labelPosition=right;verticalLabelPosition=middle;align=left;verticalAlign=middle;fontFamily=Computer Modern;fontSize=14;" parent="1" vertex="1">
          <mxGeometry x="630" y="440" width="20" height="40" as="geometry" />
        </mxCell>
        <mxCell id="gYNkToDrlpftOy3vaYt0-52" value="&lt;span style=&quot;font-family: &amp;quot;Computer Modern&amp;quot;; font-size: 14px; text-align: left;&quot;&gt;Zprávy &lt;/span&gt;&lt;span style=&quot;font-family: &amp;quot;Computer Modern&amp;quot;; text-align: left;&quot;&gt;&lt;font style=&quot;font-size: 10px;&quot;&gt;(messages,&lt;/font&gt;&lt;/span&gt;&lt;div&gt;&lt;span style=&quot;font-family: &amp;quot;Computer Modern&amp;quot;; text-align: left;&quot;&gt;&lt;font style=&quot;font-size: 10px;&quot;&gt;např. segment + HTTP)&lt;/font&gt;&lt;/span&gt;&lt;/div&gt;" style="text;html=1;align=center;verticalAlign=middle;whiteSpace=wrap;rounded=0;" parent="1" vertex="1">
          <mxGeometry x="650" y="285" width="100" height="30" as="geometry" />
        </mxCell>
        <mxCell id="gYNkToDrlpftOy3vaYt0-53" value="&lt;span style=&quot;font-family: &amp;quot;Computer Modern&amp;quot;;&quot;&gt;&lt;font style=&quot;font-size: 14px;&quot;&gt;&amp;nbsp;Segment&lt;/font&gt;&lt;/span&gt;&lt;span style=&quot;font-family: &amp;quot;Computer Modern&amp;quot;; font-size: 10px;&quot;&gt; (paket + TCP)&lt;/span&gt;&lt;span style=&quot;font-family: &amp;quot;Computer Modern&amp;quot;; font-size: 14px;&quot;&gt;&lt;br&gt;&amp;nbsp;Datagram&amp;nbsp;&lt;/span&gt;&lt;span style=&quot;font-family: &amp;quot;Computer Modern&amp;quot;; font-size: 10px;&quot;&gt;(paket + UDP)&lt;/span&gt;" style="text;html=1;align=left;verticalAlign=middle;whiteSpace=wrap;rounded=0;" parent="1" vertex="1">
          <mxGeometry x="650" y="360" width="150" height="40" as="geometry" />
        </mxCell>
        <mxCell id="gYNkToDrlpftOy3vaYt0-55" value="&lt;span style=&quot;font-family: &amp;quot;Computer Modern&amp;quot;; font-size: 14px; text-align: left;&quot;&gt;Paket&amp;nbsp;&lt;/span&gt;&lt;span style=&quot;font-family: &amp;quot;Computer Modern&amp;quot;; text-align: left;&quot;&gt;&lt;font style=&quot;font-size: 10px;&quot;&gt;(rámec + IP)&lt;/font&gt;&lt;/span&gt;&lt;span style=&quot;font-family: &amp;quot;Computer Modern&amp;quot;; font-size: 14px; text-align: left;&quot;&gt;&amp;nbsp;&lt;/span&gt;" style="text;html=1;align=center;verticalAlign=middle;whiteSpace=wrap;rounded=0;" parent="1" vertex="1">
          <mxGeometry x="650" y="405" width="100" height="30" as="geometry" />
        </mxCell>
      </root>
    </mxGraphModel>
  </diagram>
</mxfile>
